<?xml version="1.0" encoding="UTF-8"?>
<svg width="752pt" height="752pt" version="1.1" viewBox="0 0 752 752" xmlns="http://www.w3.org/2000/svg">
 <g>
  <path d="m421.46 151.05c-97.086 0-176.17 79.09-176.17 176.17v3.7891h4.2617c6.6289 0 13.734 0.47266 20.363 1.8945v-5.2109c0-39.781 15.629-76.246 40.727-103.24 0.94531 0.47266 2.3672 1.4219 3.7891 2.3672 0.94531 0.94531 1.4219 8.5234 0.94531 16.102v0.47266s6.6289 15.629 0.47266 27.941c-6.6289 13.262-5.2109 34.57-1.8945 39.781 2.8398 4.2617 17.523 22.73 19.418 25.102 1.4219 1.8945 6.6289 15.156 7.1055 17.051 0.47266 1.8945 9.9453 13.262 19.891 13.262 5.6836 0 12.312 3.3164 17.051 5.2109 2.3672 1.4219 3.7891 1.8945 5.2109 1.8945 0.47266 0 0.94531 0.94531 1.4219 1.8945 1.4219 2.3672 3.7891 6.1562 8.9961 8.9961 1.4219 0.94531 2.8398 1.8945 4.2617 2.3672 5.2109 2.8398 12.312 6.6289 12.785 8.0508 0 0.47266-0.94531 1.8945-1.8945 2.8398-3.3164 3.7891-8.5234 9.9453-7.1055 17.996 1.8945 11.367 17.996 25.102 23.207 28.414 3.3164 2.3672 1.8945 25.574 0 29.836-0.94531 0.94922-0.94531 2.8438-0.94531 5.2109h-1.8945c-17.996 0-35.047-3.3164-51.148-8.9961-0.94531 8.0508-3.3164 16.102-5.6836 23.68 17.996 6.1562 36.938 9.4727 56.828 9.4727 97.086 0 176.17-79.09 176.17-176.17 0.003907-97.09-79.082-176.18-176.17-176.18zm132.6 250.52c-20.836 37.414-57.305 64.879-100.4 74.352 1.4219-1.4219 2.8398-2.8398 2.8398-3.7891 0-0.47266 1.8945-0.94531 2.8398-1.8945 2.3672-1.4219 5.2109-2.8398 6.1562-4.7344 1.8945-2.8398 6.6289-8.0508 8.9961-8.9961 2.8398-1.4219 20.836-17.996 22.258-20.363 2.8398-6.6289 6.6289-14.207 8.9961-15.629 3.7891-3.3164 0.47266-8.9961-0.94531-11.367l-0.47266-0.47266c-1.4219-2.3672-11.84-3.7891-13.262-3.3164-1.8945 0-10.418-4.7344-11.367-6.1562 0-2.8398-8.5234-11.367-10.891-11.367-0.94531 0-6.1562-0.94531-8.9961-4.7344-3.3164-4.2617-15.156-6.6289-18.941-6.6289-3.3164 0-8.0508-0.47266-11.367-2.3672-3.3164-1.4219-8.0508 0.47266-13.262 2.8398-0.94531 0.47266-1.8945 0.94531-2.8398 0.94531-1.8945 0.47266-11.84-1.4219-14.207-2.3672-0.94531-0.47266-0.94531-4.7344-1.4219-6.6289 0-2.8398-0.47266-4.2617-0.94531-5.2109-0.94531-1.4219-3.3164-1.8945-7.5781-3.3164-1.4219-0.47266-2.8398-0.94531-3.3164-0.94531 0-0.47266 0.94531-1.8945 0.94531-2.8398 1.8945-3.7891 2.3672-6.1562 1.8945-8.0508-0.47266-0.47266-0.94531-0.94531-1.8945-1.4219-2.3672-0.47266-5.2109 1.8945-8.5234 4.2617-1.4219 0.94531-3.7891 2.8398-4.2617 2.8398-1.8945 0-6.1562-1.8945-10.891-4.7344-2.8398-1.8945 0.47266-10.418 1.8945-14.68 0.94531-1.8945 1.4219-3.7891 1.4219-4.7344 0-0.94531 5.2109-2.3672 12.312-2.3672 1.8945 0 4.7344-0.47266 7.5781-0.94531 2.3672-0.47266 4.7344-0.94531 6.1562-0.94531 0.94531 0 2.8398 2.8398 4.2617 4.7344 1.8945 2.8398 3.3164 4.7344 5.2109 4.7344 2.8398-0.47266 2.8398-4.2617 2.3672-7.1055v-2.3672c0.47266-1.8945 4.2617-8.0508 7.1055-9.9453 3.7891-2.3672 8.5234-8.9961 7.1055-12.785 0-1.4219 6.6289-5.6836 8.5234-7.1055 0.94531-0.47266 1.8945-1.4219 2.3672-1.8945 0.47266-0.47266 1.4219-0.94531 1.8945-1.4219 2.3672-0.94531 5.2109-2.8398 5.2109-6.6289 0-2.3672 7.1055-3.3164 11.367-3.7891 0.94531 0 1.8945-0.47266 2.8398-0.47266 2.8398-0.47266 4.2617-1.4219 4.7344-2.3672 0.94531-1.4219 0-3.3164-0.94531-5.2109 0-0.47266-0.47266-0.94531-0.47266-1.8945-1.4219-3.3164-0.47266-5.6836 2.3672-8.0508 1.4219-0.94531 4.2617-1.4219 6.6289-1.4219 2.8398-0.47266 6.1562-0.94531 8.9961-1.8945 1.8945-0.94531 3.3164-1.8945 3.7891-3.3164 0.47266-1.8945-0.94531-3.3164-1.8945-4.7344-0.47266-0.47266-0.94531-0.94531-0.94531-1.8945-1.4219-3.3164-4.2617-5.2109-6.1562-6.6289-0.94531-0.94531-1.8945-5.2109-2.3672-7.5781-0.47266-1.8945-0.47266-3.3164-0.94531-4.2617-0.47266-0.94531-0.94531-1.8945-1.8945-1.8945-2.3672-0.94531-6.1562 0.47266-8.0508 1.4219 0-0.47266 0-1.4219-0.47266-1.8945-0.47266-1.4219-0.47266-3.3164-1.4219-3.7891-0.47266-0.47266-1.8945-1.8945-3.3164-3.3164-2.3672-1.8945-5.2109-4.7344-6.6289-6.1562-0.94531-0.94531-2.3672-1.4219-2.8398-0.94531-2.3672 0.47266-4.7344 3.3164-6.6289 6.6289-0.47266 0.47266-0.47266 0.94531-0.47266 0.94531-3.3164 5.2109-3.7891 8.5234-1.4219 10.418 0 0 0.47266 0.94531-0.47266 2.3672-0.94531 2.3672-2.8398 4.2617-3.7891 4.2617-2.8398 0-3.7891 3.7891-4.7344 7.5781 0 1.4219-0.47266 3.7891-0.94531 4.7344-0.94531-0.47266-1.4219-2.8398-1.4219-9.9453v-0.94531c0-0.94531-0.47266-1.8945-0.94531-1.8945-0.94531-0.94531-1.8945-0.94531-3.3164-0.47266-1.4219 0-1.8945 0-2.3672-0.47266-1.8945-2.8398-9.9453-5.6836-12.785-7.1055v-9.4727c0.94531-1.4219 13.734-9.9453 16.574-10.891 3.7891-1.4219 14.207-8.0508 16.102-9.4727 1.8945-1.4219 1.8945-2.8398 1.8945-3.3164-0.47266-3.3164-6.1562-5.6836-8.5234-6.6289-1.8945-4.2617-4.7344-4.2617-8.5234-4.2617-1.8945 0-3.7891 0-6.1562-0.47266-9.4727-1.4219-17.523-1.8945-23.68-0.94531-4.7344 0.47266-9.9453-0.47266-14.207-1.4219-2.3672-0.47266-4.2617-0.94531-5.6836-0.94531 17.051-6.6289 35.047-10.418 54.461-10.418 20.836 0 40.727 4.2617 58.723 11.84 0.47266 1.8945 0.94531 3.3164 1.8945 4.7344 1.8945 4.2617 5.2109 11.84 5.2109 17.523 0 5.6836 0.47266 11.84 0 13.734-0.47266 1.8945 11.367 15.156 14.207 15.629s4.2617-1.4219 6.1562-4.2617 3.7891-5.6836 8.5234-9.4727c4.2617-3.3164 13.734-2.3672 16.574-1.8945 4.7344 5.2109 9.4727 10.891 13.734 17.051-0.94531 0.94531-1.8945 1.4219-2.3672 1.8945-2.3672 2.3672-8.5234 8.5234-7.5781 13.262 0.94531 4.7344 5.6836 10.418 11.84 13.734s7.1055 9.4727 7.1055 10.418c0 0.94531 8.5234 6.6289 8.5234 6.6289s-3.3164 7.1055-5.2109 7.1055c-1.8945 0-3.3164 7.1055-3.3164 9.9453s3.3164 8.0508 7.5781 10.891c3.7891 2.8398 9.9453-5.2109 9.9453-5.2109 0.47266 4.7344 0.94531 9.4727 0.94531 13.734-3.7891 0-10.418 2.8398-12.312 4.7344-2.3672 2.3672-8.0508 19.891-10.418 21.785-2.3672 1.8945-7.5781 26.047-8.0508 28.887-1.9023 4.7344 5.6758 25.098 10.41 25.098z"/>
  <path d="m249.55 402.05c-6.6289 0-12.312 5.6836-12.312 12.312s5.6836 12.312 12.312 12.312c14.68 0 26.52 11.84 26.52 26.52 0 6.6289 5.6836 12.312 12.312 12.312 6.6289 0 12.312-5.6836 12.312-12.312-0.47266-28.41-23.203-51.145-51.145-51.145z"/>
  <path d="m328.17 507.18c10.891-15.629 17.051-34.098 17.051-54.461 0-52.566-42.621-95.191-95.191-95.191-52.566 0-95.191 42.621-95.191 95.191 0 52.566 42.621 95.191 95.191 95.191 20.363 0 38.832-6.1562 54.461-17.051l55.887 62.984c8.0508 8.9961 22.258 9.4727 31.258 0.94531 8.5234-8.5234 8.5234-22.73-0.94531-31.258zm-78.613 17.047c-39.309 0-71.039-31.73-71.039-71.039s31.73-71.039 71.039-71.039c39.309 0 71.039 31.73 71.039 71.039 0 39.312-31.73 71.039-71.039 71.039z"/>
 </g>
</svg>
